<?xml version="1.0" encoding="UTF-8"?>
<svg xmlns="http://www.w3.org/2000/svg" id="Ebene_2" data-name="Ebene 2" viewBox="0 0 380.63 70.87">
  <defs>
    <style>
      .cls-1 {
        fill: #8c9092;
      }
    </style>
  </defs>
  <g id="Ebene_1-2" data-name="Ebene 1">
    <g id="logo_KochChemie-2025" data-name="logo KochChemie-2025">
      <path class="cls-1" d="M94.65,17.37c-.26-1.06-.39-2.15-.39-3.27s.13-2.3.39-3.4c.26-1.1.68-2.08,1.25-2.94.57-.86,1.32-1.55,2.24-2.06.92-.51,2.04-.77,3.36-.77.72,0,1.42.12,2.08.35.66.24,1.25.57,1.77.99.52.42.96.92,1.31,1.48.35.56.57,1.18.67,1.85h5.68c-.17-1.55-.6-2.92-1.27-4.11-.67-1.2-1.53-2.2-2.56-3.01-1.03-.81-2.2-1.43-3.51-1.85-1.31-.42-2.7-.64-4.17-.64-2.04,0-3.88.36-5.51,1.08s-3.01,1.72-4.13,2.99c-1.12,1.27-1.98,2.76-2.58,4.47-.6,1.71-.9,3.56-.9,5.55s.3,3.76.9,5.44c.6,1.68,1.46,3.15,2.58,4.39,1.12,1.25,2.5,2.22,4.13,2.94,1.63.71,3.47,1.07,5.51,1.07,1.65,0,3.15-.25,4.53-.75,1.37-.5,2.57-1.22,3.59-2.17,1.02-.95,1.84-2.09,2.47-3.44.62-1.35,1.01-2.85,1.16-4.52h-5.68c-.22,1.8-.84,3.24-1.85,4.34-1.01,1.1-2.41,1.65-4.21,1.65-1.32,0-2.44-.26-3.36-.77-.92-.51-1.67-1.19-2.24-2.04-.57-.85-.99-1.8-1.25-2.86M128.99,27.33h5.31v-11.89c0-1.2-.11-2.29-.32-3.27-.21-.98-.58-1.82-1.1-2.51s-1.24-1.22-2.15-1.61c-.91-.39-2.08-.58-3.5-.58-1,0-2.02.26-3.07.77-1.05.51-1.91,1.33-2.58,2.45h-.11V.64h-5.31v26.7h5.31v-10.13c0-1.97.32-3.38.97-4.24.65-.86,1.7-1.29,3.14-1.29,1.27,0,2.15.39,2.66,1.18.5.78.75,1.98.75,3.57v10.92ZM142.19,15.59c.02-.37.11-.8.24-1.27.14-.47.37-.92.71-1.35.34-.42.78-.78,1.35-1.07.56-.29,1.27-.43,2.11-.43,1.29,0,2.26.35,2.9,1.05.64.7,1.08,1.72,1.33,3.07h-8.64ZM142.19,18.96h13.95c.1-1.49-.02-2.93-.37-4.3-.35-1.37-.92-2.59-1.7-3.66-.79-1.07-1.79-1.92-3.01-2.56-1.22-.64-2.65-.95-4.3-.95-1.47,0-2.81.26-4.02.79-1.21.52-2.25,1.24-3.12,2.15-.87.91-1.54,1.99-2.02,3.23-.47,1.25-.71,2.59-.71,4.04s.23,2.87.69,4.11c.46,1.25,1.12,2.32,1.96,3.22.85.9,1.88,1.59,3.1,2.08,1.22.49,2.59.73,4.11.73,2.19,0,4.06-.5,5.61-1.5,1.55-1,2.69-2.65,3.44-4.97h-4.67c-.17.6-.65,1.17-1.42,1.7-.77.54-1.69.81-2.77.81-1.49,0-2.64-.39-3.44-1.16-.8-.77-1.24-2.02-1.31-3.74M183.13,27.33h5.31v-12.94c0-1.25-.18-2.31-.52-3.2-.35-.89-.84-1.6-1.46-2.15-.62-.55-1.37-.95-2.24-1.2-.87-.25-1.82-.37-2.84-.37-1.35,0-2.51.33-3.5.97-.99.65-1.76,1.4-2.34,2.24-.52-1.2-1.29-2.03-2.3-2.51-1.01-.47-2.12-.71-3.34-.71s-2.4.28-3.38.82c-.99.55-1.83,1.32-2.52,2.32h-.08v-2.62h-5.01v19.33h5.31v-11.22c0-.95.14-1.71.41-2.3.27-.59.6-1.03.99-1.35.39-.31.79-.52,1.2-.64.41-.11.74-.17.99-.17.85,0,1.49.14,1.92.43.44.29.75.67.94,1.14.19.47.29.99.32,1.55.02.56.04,1.13.04,1.7v10.84h5.31v-10.77c0-.6.04-1.19.13-1.78.09-.59.26-1.11.52-1.57.26-.46.62-.84,1.08-1.12.46-.29,1.07-.43,1.81-.43s1.34.13,1.78.37c.44.25.77.59.99,1.01.23.42.36.92.41,1.5.05.57.08,1.18.08,1.83v10.96ZM191.88,5.01h5.31V.64h-5.31v4.38ZM191.88,27.33h5.31V8h-5.31v19.33ZM205.04,15.59c.03-.37.11-.8.24-1.27.14-.47.37-.92.71-1.35.34-.42.78-.78,1.35-1.07.56-.29,1.26-.43,2.11-.43,1.29,0,2.26.35,2.9,1.05.64.7,1.08,1.72,1.33,3.07h-8.64ZM205.04,18.96h13.95c.1-1.49-.03-2.93-.37-4.3-.35-1.37-.92-2.59-1.7-3.66-.79-1.07-1.79-1.92-3.01-2.56-1.22-.64-2.65-.95-4.3-.95-1.47,0-2.81.26-4.02.79-1.21.52-2.25,1.24-3.12,2.15-.87.91-1.54,1.99-2.02,3.23-.47,1.25-.71,2.59-.71,4.04s.23,2.87.69,4.11c.46,1.25,1.11,2.32,1.96,3.22.85.9,1.88,1.59,3.1,2.08,1.22.49,2.59.73,4.11.73,2.19,0,4.06-.5,5.61-1.5,1.54-1,2.69-2.65,3.44-4.97h-4.67c-.17.6-.65,1.17-1.42,1.7-.77.54-1.7.81-2.77.81-1.5,0-2.64-.39-3.44-1.16-.8-.77-1.24-2.02-1.31-3.74M224.27,6.48h-.88v-1.3h.83c.11,0,.23,0,.35.02.12.02.23.04.33.09.1.04.18.1.24.18.06.08.09.19.09.32,0,.3-.09.49-.27.57-.18.08-.42.12-.7.12M226.24,9.36l-1.33-2.17c.18-.02.35-.05.51-.11.16-.05.3-.13.41-.24.12-.1.21-.24.28-.4.07-.16.1-.36.1-.59,0-.54-.17-.92-.5-1.14-.33-.22-.81-.33-1.44-.33h-1.87v4.96h.98v-2.12h.61l1.21,2.12h1.03ZM227.51,6.89c0,.51-.09.97-.27,1.4-.18.43-.42.79-.71,1.11-.3.31-.65.56-1.06.73-.41.17-.84.26-1.3.26s-.9-.09-1.31-.26c-.41-.17-.76-.42-1.06-.73-.3-.31-.54-.68-.71-1.11-.17-.43-.26-.89-.26-1.4s.09-.97.26-1.39c.17-.42.41-.79.71-1.1.3-.31.65-.55,1.06-.72.41-.17.84-.26,1.31-.26s.89.09,1.3.26c.41.17.76.42,1.06.72.3.31.54.67.71,1.1.18.42.27.89.27,1.39M228.72,6.89c0-.67-.12-1.28-.37-1.82-.25-.54-.58-1.01-1-1.39-.42-.38-.9-.68-1.45-.89s-1.12-.31-1.72-.31-1.17.1-1.72.31c-.55.21-1.03.51-1.45.89-.42.38-.75.85-1,1.39-.25.54-.37,1.15-.37,1.82s.12,1.29.37,1.84c.25.54.58,1.01,1,1.4.42.39.9.68,1.45.89.55.2,1.12.31,1.72.31s1.17-.1,1.72-.31c.55-.21,1.03-.5,1.45-.89.42-.39.75-.85,1-1.4.25-.54.37-1.16.37-1.84"></path>
      <path d="M67.08,52.36c.02-.37.11-.8.24-1.27.14-.47.37-.92.71-1.35.34-.42.78-.78,1.35-1.07.56-.29,1.27-.43,2.11-.43,1.29,0,2.26.35,2.9,1.05.64.7,1.08,1.72,1.33,3.07h-8.64ZM62.48,50.41c-.47,1.25-.71,2.59-.71,4.04s.23,2.87.69,4.11c.46,1.25,1.12,2.32,1.96,3.21.85.9,1.88,1.59,3.1,2.08,1.22.49,2.59.73,4.11.73,2.19,0,4.06-.5,5.61-1.5,1.54-1,2.69-2.66,3.44-4.97h-4.67c-.17.6-.65,1.16-1.42,1.7-.77.54-1.69.8-2.77.8-1.49,0-2.64-.39-3.44-1.16-.8-.77-1.24-2.02-1.31-3.74h13.95c.1-1.5-.03-2.93-.37-4.3-.35-1.37-.92-2.59-1.7-3.66-.79-1.07-1.79-1.92-3.01-2.56-1.22-.64-2.65-.95-4.3-.95-1.47,0-2.81.26-4.02.79-1.21.52-2.25,1.24-3.12,2.15-.87.91-1.55,1.99-2.02,3.23M40.79,54.71c0,1.45.24,2.77.71,3.98.47,1.21,1.13,2.25,1.98,3.12.85.87,1.88,1.55,3.09,2.04,1.21.49,2.54.73,3.98.73,2.57,0,4.67-.67,6.32-2.02,1.65-1.35,2.64-3.3,2.99-5.87h-5.12c-.17,1.2-.6,2.15-1.29,2.86-.69.71-1.66,1.07-2.94,1.07-.82,0-1.52-.19-2.09-.56-.57-.37-1.03-.85-1.36-1.44-.34-.59-.58-1.24-.73-1.96-.15-.72-.22-1.43-.22-2.13s.07-1.45.22-2.19c.15-.74.4-1.41.77-2.02s.83-1.11,1.4-1.5c.57-.39,1.28-.58,2.13-.58,2.27,0,3.58,1.11,3.92,3.33h5.2c-.08-1.25-.37-2.32-.9-3.23-.52-.91-1.2-1.67-2.04-2.28-.83-.61-1.78-1.07-2.84-1.36-1.06-.3-2.16-.45-3.31-.45-1.57,0-2.97.26-4.19.79-1.22.52-2.26,1.25-3.1,2.19-.85.93-1.49,2.04-1.93,3.33-.44,1.28-.65,2.67-.65,4.17M28.08,53.93l-6.95,10.17h5.94l4.04-6.09,4.04,6.09h6.06l-7.14-10.28,6.36-9.05h-5.87l-3.37,5.05-3.4-5.05h-6.06l6.35,9.16ZM19.97,37.4H0v26.7h20.27v-4.93H5.87v-6.54h12.94v-4.56H5.87v-5.72h14.1v-4.94ZM13.2,11.18L23.63.63h-7.33L5.87,11.7V.63H0v26.7h5.87v-8.6l3.36-3.4,8.04,12h7.37L13.2,11.18ZM38.32,17.68c0,.77-.07,1.53-.22,2.26-.15.74-.4,1.4-.77,1.98-.36.59-.85,1.05-1.46,1.4-.61.35-1.36.52-2.26.52s-1.65-.17-2.24-.52-1.08-.82-1.44-1.4c-.36-.59-.62-1.25-.77-1.98-.15-.74-.22-1.49-.22-2.26s.08-1.53.22-2.28c.15-.75.41-1.41.77-1.98.36-.57.84-1.04,1.44-1.4.6-.36,1.35-.54,2.24-.54s1.65.18,2.26.54c.61.36,1.1.83,1.46,1.4.36.57.62,1.24.77,1.98.15.75.22,1.51.22,2.28M42.92,21.87c.47-1.25.71-2.64.71-4.19s-.24-2.95-.71-4.21c-.47-1.26-1.15-2.33-2.02-3.22-.87-.88-1.93-1.57-3.16-2.06-1.23-.49-2.61-.73-4.13-.73s-2.89.24-4.11.73c-1.22.49-2.27,1.17-3.14,2.06-.87.89-1.55,1.96-2.02,3.22-.47,1.26-.71,2.66-.71,4.21s.24,2.94.71,4.19,1.15,2.31,2.02,3.2c.87.89,1.92,1.56,3.14,2.04,1.22.47,2.59.71,4.11.71s2.9-.24,4.13-.71c1.23-.47,2.29-1.15,3.16-2.04.87-.88,1.55-1.95,2.02-3.2M51.45,19.89c-.15-.72-.22-1.43-.22-2.13s.08-1.45.22-2.19c.15-.74.41-1.41.77-2.02.36-.61.83-1.11,1.4-1.5.57-.39,1.28-.58,2.13-.58,2.27,0,3.58,1.11,3.92,3.33h5.2c-.07-1.25-.37-2.32-.9-3.23-.52-.91-1.2-1.67-2.04-2.28-.84-.61-1.78-1.06-2.84-1.36-1.06-.3-2.16-.45-3.31-.45-1.57,0-2.97.26-4.19.78-1.22.52-2.26,1.25-3.1,2.19-.85.94-1.49,2.05-1.93,3.33-.44,1.28-.66,2.67-.66,4.17s.24,2.77.71,3.98,1.13,2.25,1.98,3.12c.85.87,1.88,1.55,3.08,2.04,1.21.49,2.54.73,3.98.73,2.57,0,4.67-.67,6.32-2.02,1.65-1.35,2.64-3.3,2.99-5.87h-5.12c-.17,1.2-.6,2.15-1.29,2.86-.69.71-1.66,1.07-2.94,1.07-.82,0-1.52-.19-2.09-.56-.57-.37-1.03-.85-1.37-1.44-.34-.58-.58-1.24-.73-1.96M80.28,27.33h5.31v-11.89c0-1.2-.11-2.29-.32-3.27-.21-.98-.58-1.82-1.1-2.51-.52-.69-1.24-1.22-2.15-1.61-.91-.39-2.08-.58-3.5-.58-1,0-2.02.26-3.07.77-1.05.51-1.91,1.33-2.58,2.45h-.11V.63h-5.31v26.7h5.31v-10.13c0-1.97.32-3.38.97-4.24.65-.86,1.69-1.29,3.14-1.29,1.27,0,2.16.39,2.66,1.18.5.78.75,1.98.75,3.57v10.92ZM83.79,64.1h5.31v-26.7h-5.31v26.7ZM92.88,64.1h5.31v-26.7h-5.31v26.7ZM106.18,52.36c.03-.37.11-.8.24-1.27.14-.47.37-.92.71-1.35.34-.42.79-.78,1.35-1.07.56-.29,1.27-.43,2.11-.43,1.29,0,2.26.35,2.9,1.05.64.7,1.08,1.72,1.33,3.07h-8.64ZM106.18,55.72h13.95c.1-1.5-.03-2.93-.38-4.3-.35-1.37-.92-2.59-1.7-3.66-.79-1.07-1.79-1.92-3.01-2.56-1.22-.64-2.65-.95-4.3-.95-1.47,0-2.81.26-4.02.79-1.21.52-2.25,1.24-3.12,2.15-.87.91-1.55,1.99-2.02,3.23-.47,1.25-.71,2.59-.71,4.04s.23,2.87.69,4.11c.46,1.25,1.11,2.32,1.96,3.21.85.9,1.88,1.59,3.1,2.08,1.22.49,2.59.73,4.11.73,2.19,0,4.06-.5,5.61-1.5,1.54-1,2.69-2.66,3.44-4.97h-4.67c-.18.6-.65,1.16-1.42,1.7-.77.54-1.7.8-2.77.8-1.5,0-2.64-.39-3.44-1.16-.8-.77-1.23-2.02-1.31-3.74M135.57,64.1h5.31v-11.89c0-1.2-.11-2.29-.32-3.27-.21-.98-.58-1.82-1.1-2.5-.52-.69-1.24-1.22-2.15-1.61-.91-.39-2.08-.58-3.5-.58-1.12,0-2.22.26-3.29.77-1.07.51-1.94,1.33-2.62,2.45h-.11v-2.69h-5.05v19.33h5.31v-10.13c0-1.97.32-3.38.97-4.24.65-.86,1.7-1.29,3.14-1.29,1.27,0,2.16.39,2.66,1.18.5.78.75,1.98.75,3.57v10.92ZM149.33,56.66c-.15-.72-.22-1.43-.22-2.13s.08-1.45.22-2.19c.15-.74.41-1.41.77-2.02.36-.61.83-1.11,1.4-1.5.57-.39,1.28-.58,2.13-.58,2.27,0,3.58,1.11,3.93,3.33h5.2c-.08-1.25-.37-2.32-.9-3.23-.52-.91-1.2-1.67-2.04-2.28-.83-.61-1.78-1.07-2.84-1.36-1.06-.3-2.16-.45-3.31-.45-1.57,0-2.97.26-4.19.79-1.22.52-2.26,1.25-3.1,2.19-.85.93-1.49,2.04-1.93,3.33-.44,1.28-.65,2.67-.65,4.17s.24,2.77.71,3.98c.47,1.21,1.13,2.25,1.98,3.12.85.87,1.88,1.55,3.08,2.04,1.21.49,2.54.73,3.98.73,2.57,0,4.67-.67,6.32-2.02,1.64-1.35,2.64-3.3,2.99-5.87h-5.12c-.17,1.2-.61,2.15-1.29,2.86-.69.71-1.67,1.07-2.93,1.07-.82,0-1.52-.19-2.1-.56-.57-.37-1.03-.85-1.36-1.44-.34-.59-.58-1.24-.73-1.96M170.08,52.36c.03-.37.11-.8.24-1.27.14-.47.37-.92.71-1.35.34-.42.79-.78,1.35-1.07.56-.29,1.27-.43,2.11-.43,1.29,0,2.26.35,2.9,1.05.64.7,1.08,1.72,1.33,3.07h-8.64ZM170.08,55.72h13.95c.1-1.5-.03-2.93-.38-4.3-.35-1.37-.91-2.59-1.7-3.66-.79-1.07-1.79-1.92-3.01-2.56-1.22-.64-2.65-.95-4.3-.95-1.47,0-2.81.26-4.02.79-1.21.52-2.25,1.24-3.12,2.15-.87.91-1.55,1.99-2.02,3.23-.48,1.25-.71,2.59-.71,4.04s.23,2.87.69,4.11c.46,1.25,1.11,2.32,1.96,3.21.85.9,1.88,1.59,3.1,2.08,1.22.49,2.59.73,4.11.73,2.19,0,4.06-.5,5.61-1.5,1.54-1,2.69-2.66,3.44-4.97h-4.67c-.18.6-.65,1.16-1.42,1.7-.77.54-1.69.8-2.77.8-1.49,0-2.64-.39-3.44-1.16-.8-.77-1.23-2.02-1.31-3.74M193.08,42.34h12.9v-4.94h-18.77v26.7h5.87v-11.03h11.18v-4.56h-11.18v-6.17ZM221.27,54.45c0,.77-.07,1.53-.23,2.26-.15.74-.4,1.4-.77,1.98-.36.59-.85,1.05-1.46,1.4-.61.35-1.36.52-2.26.52s-1.65-.17-2.24-.52c-.6-.35-1.08-.82-1.44-1.4-.36-.59-.62-1.25-.77-1.98-.15-.73-.22-1.49-.22-2.26s.08-1.53.22-2.28c.15-.75.41-1.41.77-1.98.36-.57.84-1.04,1.44-1.4.6-.36,1.35-.54,2.24-.54s1.65.18,2.26.54c.61.36,1.1.83,1.46,1.4.36.57.62,1.23.77,1.98.15.75.23,1.51.23,2.28M225.87,58.64c.47-1.25.71-2.64.71-4.19s-.24-2.95-.71-4.21c-.47-1.26-1.15-2.33-2.02-3.22-.87-.89-1.93-1.57-3.16-2.06-1.23-.49-2.61-.73-4.13-.73s-2.89.24-4.11.73c-1.22.49-2.27,1.17-3.14,2.06-.87.89-1.55,1.96-2.02,3.22-.47,1.26-.71,2.66-.71,4.21s.24,2.94.71,4.19c.47,1.25,1.15,2.31,2.02,3.2.87.88,1.92,1.56,3.14,2.04,1.22.47,2.59.71,4.11.71s2.9-.24,4.13-.71c1.23-.47,2.29-1.15,3.16-2.04.87-.88,1.54-1.95,2.02-3.2M241.01,49.24c.35.04.65.08.9.13v-4.93c-.43-.12-.81-.19-1.16-.19-.67,0-1.32.1-1.94.3-.62.2-1.21.48-1.76.84-.55.36-1.03.8-1.46,1.31-.42.51-.76,1.07-1.01,1.66h-.07v-3.59h-5.05v19.33h5.31v-8.71c0-.87.09-1.68.26-2.43.17-.75.47-1.4.88-1.96.41-.56.95-1,1.63-1.33.67-.32,1.49-.49,2.47-.49.32,0,.66.02,1.01.06M244.04,64.1h20.27v-4.93h-14.4v-6.54h12.94v-4.56h-12.94v-5.72h14.1v-4.94h-19.97v26.7ZM285.2,64.1l-7.14-10.28,6.36-9.05h-5.87l-3.37,5.05-3.4-5.05h-6.06l6.35,9.16-6.95,10.17h5.95l4.04-6.09,4.04,6.09h6.06ZM301.06,54.49c0,.77-.07,1.53-.22,2.28-.15.75-.41,1.4-.77,1.96-.36.56-.84,1.02-1.42,1.37-.59.35-1.32.52-2.19.52s-1.57-.17-2.17-.52c-.6-.35-1.08-.8-1.44-1.37-.36-.56-.62-1.21-.78-1.96-.16-.75-.24-1.51-.24-2.28s.07-1.57.22-2.32c.15-.75.41-1.41.77-1.98.36-.57.83-1.04,1.42-1.4.59-.36,1.31-.54,2.19-.54s1.56.18,2.15.54c.59.36,1.07.83,1.44,1.42.37.59.64,1.25.8,2,.16.75.24,1.51.24,2.28M305.84,58.38c.35-1.2.52-2.44.52-3.74,0-1.37-.18-2.69-.52-3.95-.35-1.26-.88-2.36-1.61-3.31-.72-.95-1.63-1.71-2.73-2.28-1.1-.57-2.41-.86-3.92-.86-1.2,0-2.29.24-3.29.71-1,.47-1.82,1.23-2.47,2.28h-.07v-2.47h-5.05v26.1h5.31v-9.16h.07c.65.95,1.48,1.66,2.49,2.15,1.01.49,2.11.73,3.31.73,1.42,0,2.66-.28,3.72-.82,1.06-.55,1.94-1.28,2.65-2.21.71-.92,1.24-1.98,1.59-3.18M313.36,52.36c.02-.37.11-.8.24-1.27.14-.47.37-.92.71-1.35.34-.42.78-.78,1.35-1.07.56-.29,1.27-.43,2.11-.43,1.29,0,2.26.35,2.9,1.05.64.7,1.08,1.72,1.33,3.07h-8.64ZM313.36,55.72h13.95c.1-1.5-.02-2.93-.37-4.3-.35-1.37-.92-2.59-1.7-3.66-.79-1.07-1.79-1.92-3.01-2.56-1.22-.64-2.65-.95-4.3-.95-1.47,0-2.81.26-4.02.79-1.21.52-2.25,1.24-3.12,2.15-.87.91-1.55,1.99-2.02,3.23-.47,1.25-.71,2.59-.71,4.04s.23,2.87.69,4.11c.46,1.25,1.12,2.32,1.96,3.21.85.9,1.88,1.59,3.1,2.08,1.22.49,2.59.73,4.11.73,2.19,0,4.06-.5,5.61-1.5,1.55-1,2.69-2.66,3.44-4.97h-4.67c-.17.6-.65,1.16-1.42,1.7-.77.54-1.7.8-2.77.8-1.49,0-2.64-.39-3.44-1.16-.8-.77-1.24-2.02-1.31-3.74M349.67,64.1c1.05,0,2.21-.04,3.1-.19v-4.15c-.56.11-1.08.15-1.65.15-1.79,0-2.24-.45-2.24-2.24v-9.57h3.89v-3.55h-3.89v-5.8h-5.31v5.8h-2.8c-2.94,0-5.3,1.1-6.33,3.46h-.07v-3.46h-5.05v19.33h5.31v-9.42c0-3.61,1.62-6.35,6.96-6.35h1.99v11.4c0,3.85,2.84,4.6,6.1,4.6M371.19,61.09c.51-.86.77-1.93.77-3.2,0-.9-.17-1.65-.52-2.26-.35-.61-.81-1.12-1.38-1.53-.57-.41-1.23-.74-1.96-.99-.73-.25-1.49-.46-2.26-.64-.75-.17-1.48-.34-2.21-.49-.72-.15-1.36-.32-1.93-.5-.56-.19-1.02-.43-1.36-.73-.35-.3-.52-.69-.52-1.16,0-.4.1-.72.3-.95.2-.24.44-.42.73-.54.29-.12.6-.21.95-.24.35-.04.67-.06.97-.06.95,0,1.77.18,2.47.54s1.08,1.05,1.16,2.07h5.05c-.1-1.2-.4-2.19-.92-2.97-.51-.78-1.15-1.41-1.93-1.89-.77-.47-1.65-.81-2.64-1.01-.99-.2-2-.3-3.05-.3s-2.07.09-3.07.28c-1,.19-1.89.51-2.69.97-.8.46-1.44,1.09-1.93,1.89-.49.8-.73,1.82-.73,3.07,0,.85.17,1.57.52,2.15.35.59.81,1.07,1.38,1.46.57.39,1.23.7,1.96.93.73.24,1.49.44,2.26.62,1.89.4,3.37.8,4.43,1.2,1.06.4,1.59,1,1.59,1.8,0,.47-.11.87-.34,1.18-.22.31-.5.56-.84.75-.34.19-.71.32-1.12.41-.41.09-.8.13-1.18.13-.52,0-1.03-.06-1.52-.19-.49-.12-.91-.32-1.29-.58-.37-.26-.68-.6-.92-1.01-.24-.41-.36-.9-.36-1.48h-5.05c.05,1.3.34,2.37.88,3.23.54.86,1.22,1.55,2.06,2.07.84.52,1.79.9,2.86,1.12,1.07.22,2.17.34,3.29.34s2.17-.11,3.23-.32c1.06-.21,2-.58,2.82-1.1.82-.52,1.49-1.21,2-2.08M380.63,58.34h-5.87v5.76h5.87v-5.76Z"></path>
    </g>
  </g>
</svg>
